<svg width="80" height="56" viewBox="0 0 80 56" fill="none" xmlns="http://www.w3.org/2000/svg">
<path d="M80.0001 39.878H39.998V0L74.3039 34.2065L74.4693 34.3679L79.2969 39.1747L79.5244 39.4064L80.0001 39.878Z" fill="#E9AE21"/>
<path d="M0 39.878H40.0021V0L5.69626 34.2065L5.53079 34.3679L0.703243 39.1747L0.475723 39.4064L0 39.878Z" fill="#EFD13B"/>
<path d="M56.1974 24.2823H39.998V8.13672L53.8891 21.9865L53.9553 22.0526L55.912 23.9969L56.003 24.092L56.1974 24.2823Z" fill="#B82E27"/>
<path d="M23.8069 24.2823H40.0021V8.13672L26.111 21.9865L26.0448 22.0526L24.0882 23.9969L23.9972 24.092L23.8069 24.2823Z" fill="#DC2C28"/>
<path d="M17.5521 27.6039C17.7342 27.5915 17.8707 27.5832 17.9575 27.5832H18.4415C18.5863 27.5832 18.7352 27.5832 18.88 27.5832C19.0124 27.5584 19.0993 27.546 19.1448 27.546L20.0052 27.5253L21.1511 27.5046C21.0932 27.5294 21.0311 27.5543 20.9649 27.5791C20.8987 27.6039 20.8201 27.6411 20.7333 27.6908C20.543 27.7652 20.3237 27.9183 20.0714 28.1541C19.3806 28.8449 19.0372 30.9671 19.0372 34.5246V45.8593C19.0372 47.7621 19.1282 49.4913 19.3144 51.055C19.4964 52.6187 19.8397 53.719 20.3403 54.3602C20.5016 54.5588 20.7374 54.7242 21.0435 54.8608L21.5275 55.0469V55.1586H19.5254L17.2336 55.0841C16.9854 55.0841 16.6007 55.0965 16.0795 55.1172C15.5582 55.142 15.157 55.1545 14.8798 55.1545H12.6791V55.0428L13.1176 54.8194C13.3947 54.6622 13.6223 54.4554 13.8001 54.2071C14.462 53.2185 14.7929 51.1956 14.7929 48.1344V36.7626C14.7929 35.0335 14.7061 33.3043 14.5282 31.5752C14.5282 30.7726 14.4413 30.0859 14.2634 29.5109C14.0856 28.9359 13.858 28.4933 13.5809 28.1872C13.4485 28.001 13.2375 27.8687 12.9438 27.7776L12.4598 27.6122V27.5005L13.8043 27.5212L14.9046 27.5791" fill="white"/>
<path d="M45.2889 28.1583C45.0531 28.936 44.8835 29.7137 44.7801 30.5038L44.6932 32.1585C44.6932 32.4977 44.6932 32.8121 44.6932 33.1017C44.6932 33.3912 44.7097 33.6477 44.7387 33.8628L44.0561 33.9704C43.75 32.9279 42.8896 31.8937 41.479 30.8637C40.7757 30.3549 39.8408 29.9619 38.6825 29.6765C37.5201 29.391 36.184 29.2504 34.6741 29.2504C32.5891 29.2504 31.1827 29.6351 30.4587 30.4045C29.7307 31.1739 29.3666 32.0096 29.3666 32.9031C29.3666 33.8504 29.6438 34.7067 30.1898 35.4761C30.74 36.2456 31.5508 36.9405 32.6222 37.5569C33.6936 38.1774 35.0215 38.7566 36.6059 39.3026L41.3342 40.9449C43.0716 41.4909 44.4367 42.2479 45.4337 43.2325C46.4347 44.2129 46.9353 45.4043 46.9353 46.8107C46.9353 47.6588 46.7946 48.4323 46.5175 49.1439C46.2403 49.8512 45.8142 50.5503 45.2392 51.2412C44.1802 52.536 42.72 53.5329 40.8584 54.2362C38.9928 54.9394 36.9286 55.291 34.6699 55.291C33.2303 55.291 31.2695 55.1214 28.7792 54.7905C26.2931 54.4595 24.8576 54.1824 24.4729 53.9673C24.7211 52.9745 24.8783 52.3002 24.9362 51.9403C24.9941 51.5845 25.0231 51.2536 25.0231 50.9516L25.0686 49.8802L25.1141 48.937V48.3C25.1141 48.1552 25.1141 48.0021 25.1141 47.8449C25.0851 47.6505 25.0686 47.5181 25.0686 47.4437H25.838C26.0159 48.693 26.6364 49.7809 27.712 50.7158C28.7379 51.6011 30.0161 52.3002 31.5426 52.8214C32.3368 53.0779 33.0897 53.264 33.8012 53.3923C34.5127 53.5205 35.2284 53.5826 35.9482 53.5826C37.4746 53.5826 38.7239 53.3964 39.6919 53.0282C40.6599 52.6601 41.3755 52.1182 41.8389 51.4108C42.3022 50.7034 42.5338 49.8885 42.5338 48.9701C42.5338 48.4613 42.4594 47.9939 42.3104 47.5636C42.1656 47.1334 41.9588 46.7446 41.6941 46.3929C41.1935 45.6897 40.5813 45.1354 39.8532 44.7217C39.1293 44.3122 38.182 43.8944 37.0237 43.4683L30.9675 41.342C28.9116 40.6264 27.3562 39.6832 26.2972 38.5084C25.7842 37.9251 25.3913 37.3128 25.1182 36.6675C24.8452 36.018 24.7128 35.3355 24.7128 34.624C24.7128 33.0644 25.3085 31.749 26.4958 30.6817C27.6871 29.6185 29.2343 28.8284 31.1413 28.3196C32.1093 28.0631 33.1269 27.8687 34.1901 27.7281C35.2532 27.5874 36.3453 27.5171 37.4622 27.5171C38.4302 27.5171 39.9484 27.6246 42.0209 27.8439L45.2889 28.1583Z" fill="white"/>
<path d="M52.3586 27.9019C52.4041 27.9019 53.0742 27.8647 54.3731 27.7861C55.6721 27.7075 56.6152 27.6661 57.2027 27.6661C58.0093 27.6661 58.8408 27.6372 59.7012 27.5834C60.5617 27.5296 61.4511 27.4717 62.3777 27.4097C67.9416 27.4097 70.7256 29.1595 70.7256 32.6592C70.7256 33.9209 70.3822 35.013 69.6997 35.9479C69.0171 36.8786 67.9705 37.8549 66.5599 38.8725L64.9962 39.9646C65.7615 39.9646 66.4937 40.0473 67.2011 40.217C67.9044 40.3866 68.649 40.6348 69.4267 40.9616C70.7504 41.52 71.8342 42.2936 72.6864 43.2864C73.5386 44.2792 73.9646 45.3879 73.9646 46.6123C73.9646 47.3611 73.853 48.0767 73.6213 48.7634C73.3938 49.446 73.0587 50.0872 72.6202 50.6787C71.797 51.7956 70.6925 52.6974 69.2984 53.3841C67.9623 54.0253 66.4937 54.5135 64.8928 54.8361C63.354 55.1257 61.7655 55.2705 60.1356 55.2705C59.3993 55.2705 58.7705 55.2581 58.241 55.2332C57.6122 55.1836 57.1241 55.1464 56.789 55.1257C56.276 55.1257 55.7962 55.1133 55.3577 55.0885C54.0381 55.014 53.3555 54.9768 53.31 54.9768L49.3015 54.9395V54.7948L50.0503 54.468C50.1826 54.3976 50.3357 54.2694 50.5136 54.0874C50.7783 53.7606 50.9976 52.9911 51.1755 51.7791C51.2499 51.2827 51.312 50.6829 51.374 49.9796C51.4319 49.2764 51.4609 48.66 51.4609 48.1264V38.7898C51.4609 38.0659 51.4402 37.131 51.3947 35.9934C51.3492 34.8558 51.3285 34.0863 51.3285 33.6892C51.3285 33.048 51.3037 32.4896 51.2499 32.018C51.2003 31.5423 51.13 31.0913 51.0389 30.6529C50.9521 29.9993 50.8321 29.5442 50.6873 29.2919C50.5674 29.0271 50.4226 28.7955 50.2447 28.601C50.1289 28.4438 49.9055 28.2867 49.5828 28.1295L49.1195 27.9309V27.8233L50.4184 27.8606L52.3586 27.9019ZM55.4197 39.7288H62.5183L63.3333 39.3482C63.7428 39.1414 64.1979 38.8353 64.6943 38.4216C65.1203 38.0328 65.5216 37.4867 65.9022 36.7876C66.0925 36.4236 66.2331 36.0389 66.3283 35.6335C66.4234 35.2281 66.473 34.7854 66.473 34.2973C66.473 33.1721 66.1545 32.2041 65.5175 31.4016C64.8804 30.5949 63.9952 29.9786 62.8658 29.5484C61.7365 29.1181 60.4583 28.903 59.0311 28.903C58.2699 28.903 57.4798 28.9403 56.6649 29.0106C55.85 29.0809 55.4073 29.2464 55.3329 29.5028L55.4197 39.7288ZM55.4197 41.3628V42.4715V44.9576V47.1005C55.4197 47.2577 55.4363 47.5555 55.4735 47.9898C55.5107 48.4242 55.5273 48.7055 55.5273 48.8255L55.6597 50.7697L55.7465 52.0438L57.3309 52.5857C58.2534 52.8877 59.1717 53.1277 60.0818 53.3055C60.9919 53.4793 61.902 53.5703 62.8121 53.5703C63.1926 53.5703 63.5691 53.5537 63.9331 53.5248C64.3013 53.4958 64.777 53.4379 65.3644 53.3552C65.9518 53.2683 66.5558 53.0532 67.1804 52.7016C67.8051 52.35 68.3222 51.8122 68.7317 51.0841C68.9385 50.7077 69.0916 50.2899 69.195 49.8307C69.2984 49.3715 69.3481 48.842 69.3481 48.2505C69.3481 46.7488 68.9137 45.4582 68.0409 44.3826C67.168 43.3071 65.9973 42.4921 64.5247 41.942C63.052 41.3918 61.4511 41.1146 59.7219 41.1146C58.7829 41.1146 57.9514 41.1394 57.2275 41.1891C56.5077 41.2304 55.9037 41.2884 55.4197 41.3628Z" fill="white"/>
</svg>
