<svg width="1440" height="450" viewBox="0 0 1440 450" fill="none" xmlns="http://www.w3.org/2000/svg">
<path opacity="0.25" d="M1301.18 129.962L1439.82 266.486V261.289L1301.18 125.89V120.634L1439.93 252.361L1439.82 248.092L1301.18 117.056V111.595H1303.17C1304.04 111.595 1304.75 110.888 1304.75 110.019V105.623C1304.75 104.754 1304.04 104.046 1303.17 104.046H1301.18V98.8155C1301.18 98.1255 1300.8 97.495 1300.2 97.1628L1297.64 95.7656C1297.64 95.7656 1308.95 85.6445 1292.13 72.5417C1292.13 72.5417 1276.05 84.4518 1287.37 95.7656L1284.26 97.2139C1283.63 97.5121 1283.23 98.1425 1283.23 98.8326V104.046H1280.85C1279.98 104.046 1279.27 104.754 1279.27 105.623V110.019C1279.27 110.888 1279.98 111.595 1280.85 111.595H1283.23V117.95L917.139 347.258C916.645 346.986 916.525 346.917 916.031 346.645V338.577H910.238C911.065 337.495 911.559 336.123 911.559 334.633V333.321C911.559 329.853 908.884 327.025 905.621 327.025H886.75C886.401 324.622 884.765 322.663 882.618 321.964C884.484 320.056 886.273 318.054 886.673 317.006C887.602 314.612 884.424 291.362 884.424 291.362C883.777 287.12 883.76 287.324 883.163 285.126C882.286 281.88 870.938 281.488 868.382 281.054C865.826 280.62 864.872 277.024 864.872 277.024C864.719 274.656 865.383 272.313 866.747 270.422C868.91 267.423 870.282 263.001 870.282 258.069C870.282 251.798 868.076 247.385 864.838 244.591C863.85 243.739 863.262 242.47 863.271 241.115C863.271 239.428 863.279 237.503 863.254 236.983C863.202 236.003 862.231 235.569 861.609 235.075C861.141 234.7 860.4 230.653 860.076 228.753V227.774C860.076 227.774 860.076 227.808 860.059 227.85V227.774C860.059 227.774 860.033 227.944 859.982 228.234C859.94 227.953 859.905 227.774 859.905 227.774V227.85C859.905 227.799 859.888 227.774 859.888 227.774V228.753C859.786 229.35 859.65 230.142 859.488 230.977V231.054C859.139 232.877 858.687 234.828 858.372 235.075C857.759 235.569 856.779 236.003 856.728 236.983C856.702 237.469 856.702 239.164 856.711 240.757C856.711 242.316 856.106 243.824 854.998 244.855C851.923 247.752 849.853 251.994 849.853 258.069C849.853 261.979 850.713 265.566 852.144 268.377C853.49 271.018 854.044 274.034 853.848 277.033C853.848 277.033 852.902 280.628 850.338 281.063C847.782 281.497 838.224 280.952 837.397 284.368C837.201 285.169 834.901 294.344 834.322 302.404C833.853 308.938 830.275 314.774 824.831 317.875L820.231 320.499C820.231 320.499 818.774 322.722 818.467 324.852H813.372C810.11 324.852 807.434 327.681 807.434 331.148V332.46C807.434 335.433 809.402 337.938 812.035 338.585H802.868V345.069C795.337 345.52 787.814 346.048 780.309 346.628L772.488 243.952L776.79 229.461H783.009C783.009 229.461 783.069 229.461 783.103 229.461C783.256 229.443 783.401 229.367 783.486 229.248L791.478 218.138C791.614 217.942 791.597 217.687 791.435 217.508C791.265 217.329 791.001 217.295 790.788 217.406L781.51 222.466H754.972L749.903 217.491C749.698 217.295 749.366 217.286 749.153 217.491L743.88 222.475H719.318L710.041 217.414C709.828 217.295 709.564 217.337 709.393 217.516C709.231 217.695 709.206 217.951 709.351 218.147L717.342 229.256C717.444 229.392 717.597 229.478 717.768 229.478H721.815L726.117 243.969L717.861 352.327C706.207 353.452 694.544 354.559 682.864 355.556V328.942H676.483V327.127V323.191V320.848V316.495V314.152V309.798V307.456V302.796V300.453V296.236V293.893V289.258V286.915V282.255V279.912V274.52V272.177V267.517V265.174V259.781V257.438V252.778V250.435V250.35L670.374 236.949V115.778H667.077L664.462 115.786V97.0265H662.017V87.7318H662.494V85.3038H661.625V83.421H662.494V82.0494H643.215V50.9706H642.533V39.4012V38.8134H643.215V38.2256H642.533V38.0552V37.4673H643.215V36.8795H642.533V34.8689H639.926V36.8795H639.244V37.4673H639.926V38.0552V38.2256H639.244V38.8134H639.926V39.4012V50.9706H639.244V82.0494H619.999V83.421H620.868V85.3038H619.999V87.7318H620.476V97.0265H618.031V115.786H612.127V236.906L606.019 250.307V328.933H599.638V360.668C593.649 360.906 587.66 361.119 581.662 361.307V245.46H575.86V244.165H575.894H575.903V243.594H575.86V233.933H575.894H575.903V233.362H575.86V223.701H575.894H575.903V223.131H575.86V205.683H581.611H581.619V194.318H575.86V185.228H581.611H581.619V-0.000976562H580.384H575.86H575.852H574.633H570.11H570.101H568.883H564.359H564.35H563.132H558.608H546.383V8.35655V8.92735V18.5884V19.1592V20.4541H541.859H541.851H535.393V21.5872V28.8116V29.3824V30.6774H529.634V31.8105V39.0349V39.6057V40.9007H513.404V42.0337V49.2582V49.829V51.1239V52.257H514.623H518.635V61.3472H513.404V62.4803V69.7047V70.2755V71.5705H501.886V72.7036V81.7938V82.9269V92.0171V92.5879V206.91V245.468V246.116V246.602V265.472V276.189V276.309H501.801V280.202H501.886V286.532H501.912H507.645V293.271V293.842V295.137H501.886V305.368V326.471V330.858V346.44H503.104H507.637V353.665V354.236V355.531H501.878V362.61C485.41 362.661 468.933 362.61 452.457 362.465V317.083H446.042V240.186L435.154 232.698V156.909H432.513V148.654H425.706V128.923H421.455V148.654H414.648V156.909H412.007V232.698L401.119 240.186V317.083H394.312V354.96L374.513 323.762L374.623 279.853L372.349 276.845V267.219H368.83V276.845L366.521 279.853V306.067L355.932 284.607V222.96L347.702 214.475V190.799H342.505V214.381L334.276 222.96V284.607L323.669 305.828V279.802L321.539 276.854V267.227H318.021V276.854L315.661 279.802V323.481L299.568 349.916L298.63 351.458L295.521 356.042V351.688L275.424 328.192L272.322 307.422H269.971L266.879 328.192L247.088 351.348V331.31H250.325L248.238 318.855H247.088V316.52L245.546 314.919V313.377H245.043V298.681H245.64V294.949H245.043V294.344H245.81V293.305H247.088V283.295C247.088 283.295 247.642 283.652 248.051 282.502C248.46 281.352 248.46 280.534 248.46 280.534C248.46 280.534 249.439 280.287 249.525 278.566C249.525 278.566 248.622 279.878 247.718 279.716C246.815 279.555 247.795 282.093 246.245 282.502C244.686 282.911 241.9 283.082 241.9 283.082H220.124C220.124 283.082 217.338 282.92 215.779 282.502C214.22 282.093 215.2 279.555 214.305 279.716C213.402 279.878 212.499 278.566 212.499 278.566C212.576 280.287 213.564 280.534 213.564 280.534C213.564 280.534 213.564 281.352 213.973 282.502C214.382 283.652 214.936 283.295 214.936 283.295V293.305H216.214V294.344H216.98V294.949H216.384V298.681H216.98V313.377H216.478V314.919L214.936 316.52V318.855H213.786L211.698 331.31H214.936V351.535L194.975 328.192L191.874 307.422H189.514L186.421 328.192L166.086 351.987V367.338C162.064 367.509 158.043 367.671 154.022 367.824V350.07C155.632 350.283 158.001 356.953 158.427 355.445C158.853 353.937 159.713 351.901 161.545 350.18C163.368 348.459 162.942 345.128 162.516 344.157C162.081 343.195 163.589 341.039 162.516 341.363C161.443 341.687 160.897 343.194 161.008 345.554C161.119 347.923 157.14 350.606 154.883 347.701C152.625 344.796 132.954 323.293 132.954 323.293V320.925C135.211 320.925 134.998 318.13 134.777 316.946C134.564 315.762 135.424 314.041 136.395 313.078C137.358 312.107 139.403 312.107 136.395 311.681C133.38 311.255 133.277 313.189 132.63 314.91C131.991 316.631 130.483 316.239 130.483 316.239L105.828 273.523L81.1727 316.239C81.1727 316.239 79.6648 316.631 79.0173 314.91C78.3699 313.189 78.2676 311.255 75.2518 311.681C72.2444 312.107 74.2805 312.107 75.2518 313.078C76.2144 314.05 77.0749 315.762 76.8619 316.946C76.6489 318.13 76.4274 320.925 78.6851 320.925V323.293C78.6851 323.293 59.0138 344.796 56.7561 347.701C54.4985 350.606 50.5199 347.914 50.6307 345.554C50.7414 343.194 50.2047 341.687 49.1228 341.363C48.0493 341.039 49.5487 343.195 49.1228 344.157C48.6883 345.12 48.2623 348.459 50.094 350.18C51.9171 351.901 52.7776 353.946 53.2121 355.445C53.638 356.953 56.0064 350.283 57.6166 350.07V368.872C51.1844 368.702 44.7523 368.48 38.3116 368.19C21.6307 367.432 16.6383 366.955 -0.0341797 366.188L0.0765725 509.851H1439.93L1439.82 372.271H1432.68L1424.93 362.908V347.599L1439.93 364.817V343.697L1301.18 192.239V184.512L1439.93 334.735V331.148L1301.18 179.605V172.653L1439.93 321.819V317.977L1301.11 168.385V160.641L1439.93 310.097V305.547L1301.18 156.517V151.005L1439.93 297.675V291.984L1301.18 147.632V140.799L1439.93 280.833V276.377L1301.18 137.485V129.954V129.962ZM83.5241 369.221C78.6595 369.204 73.7864 369.17 68.9133 369.093V358.419H71.188V355.837L76.2144 349.78L81.2409 355.837V358.419H83.5241V369.221ZM101.219 369.162C96.3543 369.213 91.4812 369.238 86.6081 369.23V358.419H88.8828V355.837L93.9092 349.78L98.9357 355.837V358.419H101.21V369.162H101.219ZM135.552 368.446C127.518 368.693 119.476 368.889 111.434 369.025V347.948H115.191V343.689L123.489 333.687L131.795 343.689V347.948H135.552V368.455V368.446ZM196.798 365.924C193.126 366.103 189.454 366.274 185.782 366.444V358.044H187.495V356.101L191.286 351.535L195.077 356.101V358.044H196.789V365.916L196.798 365.924ZM241.55 363.76C234.547 364.084 227.553 364.425 220.559 364.766V331.293H241.55V363.76ZM241.695 295H241.124V298.698H241.695V311H220.405V298.698H220.985V295H220.405V294.344H220.985V293.237H230.458V296.568C228.141 297.445 227.749 299.303 227.749 299.303V304.934L225.67 306.689H236.439L234.36 304.934V299.303C234.36 299.303 233.968 297.445 231.651 296.568V293.237H241.124V294.344H241.695V295ZM277.247 362.252C273.575 362.389 269.903 362.525 266.231 362.678V358.044H267.944V356.101L271.735 351.535L275.526 356.101V358.044H277.238V362.252H277.247ZM630.657 85.3038H622.546V83.421H630.657V85.3038ZM639.253 85.3038H632.318V83.421H639.253V85.3038ZM650.2 85.3038H643.223V83.421H650.2V85.3038ZM659.972 85.3038H651.862V83.421H659.972V85.3038ZM732.046 229.469H766.558L766.84 237H731.774L732.055 229.469H732.046ZM727.523 351.39L731.637 240.578H766.967L770.929 347.395C756.437 348.604 741.98 349.993 727.514 351.39H727.523ZM847.774 310.046C847.493 312.414 844.843 317.5 843.173 321.334C842.236 323.481 840.209 324.861 837.976 324.861H830.053C830.505 324.656 830.948 324.46 831.382 324.256C836.102 322.075 839.561 317.645 840.72 312.329L842.901 302.352C843.114 301.364 844.349 301.151 844.86 302.003C846.215 304.286 848.038 307.83 847.774 310.046ZM874.661 316.912C874.525 316.989 874.38 317.023 874.244 317.031C873.818 317.048 873.417 316.776 873.264 316.324C872.727 314.731 871.867 311.741 872.02 309.177C872.148 307.013 873.358 304.21 874.346 302.259C874.567 301.816 874.985 301.637 875.377 301.679C875.777 301.731 876.144 302.012 876.271 302.497C876.902 305.019 877.788 308.699 877.975 310.267C877.975 310.31 877.984 310.352 877.992 310.395C878.282 313.087 876.936 315.677 874.661 316.912ZM922.83 349.925L1283.21 121.835V127.79L933.666 349.363L922.821 349.925H922.83ZM942.637 350.095L1283.21 131.223V138.218L950.467 351.978C945.721 350.598 946.556 349.925 942.637 350.095ZM956.584 353.401L1283.21 141.643V148.041L966.492 354.576L956.575 353.401H956.584ZM972.31 355.266L1283.21 151.908V157.983L982.619 356.485L972.31 355.258V355.266ZM989.383 357.294L1283.22 161.586V169.041L1003.44 357.677L989.383 357.303V357.294ZM1020.83 359.092C1016.02 358.828 1016.02 358.955 1011.3 358.512L1283.22 173.207V181.019L1023.68 359.816L1020.83 359.1V359.092ZM1042.07 360.199C1041.55 360.003 1039.81 359.407 1038.99 359.33C1038.17 359.254 1035.17 359.875 1033.21 360.353C1031.25 360.83 1030.43 359.45 1030.43 359.45L1283.21 184.879V192.384L1049.8 360.353C1049.8 360.353 1042.58 360.395 1042.06 360.199H1042.07ZM1058.28 362.073L1283.22 196.593V204.609C1283.22 204.609 1077.36 361.145 1076.57 362.073C1075.78 363.002 1058.29 362.073 1058.29 362.073H1058.28ZM1090.31 360.966L1283.22 209.534V218.138L1107.83 361.332C1103.37 361.332 1098.66 361.196 1090.31 360.966ZM1108.23 361.332L1119.9 360.983L1283.22 223.633V232.485L1139.37 360.54C1125.21 361.085 1114.31 361.324 1108.23 361.324V361.332ZM1150.54 359.816L1283.23 238.142V252.599H1280.52L1202.33 356.144C1183.83 357.78 1166.62 358.981 1150.54 359.816ZM1268.39 348.664C1252.78 350.777 1237.18 352.779 1221.57 354.338C1220.03 354.491 1218.5 354.645 1216.98 354.789L1283.22 267.074V292.044H1282.54L1268.38 310.608V348.672L1268.39 348.664ZM1303.72 343.85C1295.57 344.932 1287.41 346.057 1279.26 347.182V314.28L1287.93 302.923H1296.28L1303.72 314.092V343.859V343.85ZM1314.6 342.436V310.787L1302.1 292.036H1301.17V266.665L1358.95 337.717C1344.16 338.892 1329.38 340.562 1314.6 342.436ZM1372.24 336.796L1303.75 252.599H1301.17V237.758L1387.17 336.166C1381.81 336.311 1377.59 336.49 1372.24 336.805V336.796ZM1301.17 196.601L1439.81 348.051V359.756L1301.17 204.328V196.601ZM1301.17 209.542L1415 336.209C1410.86 336.064 1410.86 335.979 1406.74 335.962L1303.92 219.621L1301.17 216.571V209.551V209.542ZM1402.44 337.376L1393.47 335.791L1301.17 232.025L1301.02 222.193L1402.43 337.376H1402.44Z" fill="white"/>
</svg>
